<?xml version="1.0" encoding="utf-8"?>
<!-- Generator: Adobe Illustrator 22.1.0, SVG Export Plug-In . SVG Version: 6.00 Build 0)  -->
<svg version="1.1" id="Layer_1" xmlns="http://www.w3.org/2000/svg" xmlns:xlink="http://www.w3.org/1999/xlink" x="0px" y="0px"
	 viewBox="0 0 1000 1000" style="enable-background:new 0 0 1000 1000;" xml:space="preserve">
<g>
	<g>
		<path d="M518.8,902.3c-0.3-2.1-0.8-4.3-0.8-6.4c0.1-5.7,1-11.4,0.4-17c-1.4-13.7,5.2-23.3,14.8-31.6
			c16.5-14.2,35.7-23.9,55.2-32.9c41.9-19.4,83.9-38.4,126-57.1c13.8-6.1,28.2-11.4,43.8-10.6c4.2,0.2,8.8,1,12.5,2.8
			c6.9,3.4,7.9,10.3-0.1,16.3c-10.8,8-22.3,15.4-34.4,20.9c-45.1,20.4-90.6,39.7-135.8,59.7c-23.3,10.3-46.7,20.5-68,34.7
			c-6.6,4.3-12.6,8.9-11.2,18.2c0.1,0.8-0.5,1.8-0.8,2.7C519.9,902.2,519.4,902.3,518.8,902.3z"/>
	</g>
</g>
</svg>
