<?xml version="1.0" encoding="utf-8"?>
<!-- Generator: Adobe Illustrator 22.1.0, SVG Export Plug-In . SVG Version: 6.00 Build 0)  -->
<svg version="1.1" id="Layer_1" xmlns="http://www.w3.org/2000/svg" xmlns:xlink="http://www.w3.org/1999/xlink" x="0px" y="0px"
	 viewBox="0 0 1000 1000" style="enable-background:new 0 0 1000 1000;" xml:space="preserve">
<g>
	<g>
		<path d="M581.7,745c-17.6-7.8-34.7-15.3-51.6-23c-6.9-3.2-13.6-6.9-20.3-10.7c-3.8-2.2-5.9-5.5-6.2-10.2
			c-0.3-4.8-1.4-9.6-1.9-14.4c-0.3-3.7-2.2-5.2-5.7-5.4c-19.8-1.4-39.5-3-59.3-4.3c-9.8-0.6-19.6-0.5-29.5-0.9
			c-8.1-0.3-8.5-1-9.4-8.8c-1.1-9.6-2.5-19.1-4.1-28.6c-0.6-3.7-0.1-6.2,3.7-7.4c12.7-3.9,25.4-8.1,38.2-11.6
			c46.8-12.7,93.8-24.3,139-42c13.7-5.4,26.8-12.6,40-19.2c2.3-1.1,4.3-2.9,6.2-5.7c-3.3-0.5-6.6-1.2-9.9-1.5
			c-26.8-2.4-53.6-1-80.3,1.2c-3.8,0.3-7.6,1-11.4,1c-15.8,0.1-30,7.2-45.1,10.2c-9,1.8-18.1,2.8-27.1,4.2c-3.7,0.6-6.2-1-8.3-4.2
			c-4.4-6.8-9.2-13.4-14.5-21c4.6-1.5,8.5-3.3,12.6-4c22.1-4.1,44.2-7.8,66.3-12.1c9-1.7,16.3-7.1,23.8-14.1
			c-5.5-4.6-10.1-9.6-15.7-12.9c-19.5-11.5-39.4-22.3-59-33.5c-7.1-4-14.1-8.2-20.9-12.6c-4.4-2.8-5.9-6.7-3.7-12.1
			c3.1-7.7,5.2-15.9,8.7-23.4c2.3-5.2,5.4-10.7,9.6-14.3c8.1-6.8,17.2-12.5,26-18.4c1.5-1,4.7-1.6,5.8-0.7c1.2,1,1.5,3.9,1.2,5.9
			c-2.1,12.6-7.9,22.8-20,28.7c-5.3,2.6-10.3,6-16.2,9.6c2.1,1.6,3.5,2.9,5.1,3.8c18.4,10.5,37,20.5,55.1,31.5
			c8.6,5.3,16.2,12.1,23.7,19c5.5,5.1,8.1,12,7.6,19.9c-0.4,6.3-0.1,12.6-0.1,19.6c8-0.8,16-1.7,24-2.4c21.6-1.8,43.2-3.8,64.8-0.6
			c11.5,1.7,13.5,3.6,15.7,15c1.6,8.2,2.9,16.4,5.1,24.4c2.9,10.6-0.2,19.5-7.6,26.4c-7.5,7-15.7,13.5-24.6,18.5
			c-25.6,14.6-53.6,23.5-81.6,32.2c-13.7,4.3-27.4,8.1-42.2,12.5c7.4,1.8,13.7,3.5,20.1,4.9c8.1,1.8,12.9,5.8,13,14.9
			c0.1,5.1,1.8,10.2,2.3,15.3c0.4,4.1,2.8,5.6,6.1,6.9c19.8,8.3,39.6,16.6,59.3,25.2c6.2,2.7,12.2,6.1,18.2,9.5c3,1.7,5.5,2,8.7,0.3
			c23.4-12.6,47.8-23,73.5-29.7c17-4.4,34.5-7.4,51.9-10.1c15.8-2.5,31.7-4.2,47.6-5.4c14.3-1.1,28.6-0.1,42.5,4.4
			c3.1,1,6.2,2.4,9.1,4.1c9,5.1,11.3,13.8,6.5,23c-5.8,11.1-15.2,18.9-24.9,26.2c-29.2,21.6-61.6,37.8-94.5,52.7
			c-50.8,23-102.1,44.9-153,67.8c-13.6,6.1-26.5,13.9-39.5,21.4c-8.5,4.9-11.7,9.5-15,17c0-11,0-22,0-33.2c-5.7-0.8-7.4-4.9-8.9-9.9
			c-1.3-4.4-4.7-8.2-6.5-12.6c-1.1-2.7-2.4-6.5-1.3-8.8c3.7-8.6,7.4-17.6,12.8-25.2c16.3-22.7,37.5-40.5,59.9-56.8
			c1.8-1.3,3.5-2.5,5.2-3.8C580.8,746.4,581,745.9,581.7,745z M612.4,802.8c2.1-0.9,3.1-1.2,3.9-1.6c24.5-11.3,49.1-22.3,73.4-34
			c24-11.5,47.9-23.5,69.4-39.3c7.9-5.9,15.2-12.9,21.7-20.4c6.3-7.3,3.9-14.5-5.1-18.1c-9.7-3.8-19.9-4.3-30-2.7
			c-33.4,5.3-65.2,15.9-95.7,30.6c-10,4.8-19.7,10.2-30,15.6c1.4,1.5,2.1,2.4,3,3.1c6.1,4.8,8.6,10.9,6.3,18.5
			c-2.5,8.6-4.7,17.3-7.6,25.8C619.1,787.7,615.8,794.6,612.4,802.8z M516.5,838.9c0.5,0.6,1,1.2,1.5,1.8
			c14.9-5.1,30.1-9.7,44.7-15.4c17.3-6.7,33.7-15.1,47.1-28.5c5.6-5.6,7.9-12.1,8.6-19.6c0.6-5.7-1.2-10.7-5.8-14.1
			c-4.7-3.5-9.7-6.4-14.5-9.6c-3.2-2.2-5.6-1.9-8.8,0.6c-23.7,18.5-43.9,40.3-60.9,65C524.1,825.3,520.5,832.2,516.5,838.9z"/>
	</g>
</g>
</svg>
