<?xml version="1.0" encoding="utf-8"?>
<!-- Generator: Adobe Illustrator 22.1.0, SVG Export Plug-In . SVG Version: 6.00 Build 0)  -->
<svg version="1.1" id="Layer_1" xmlns="http://www.w3.org/2000/svg" xmlns:xlink="http://www.w3.org/1999/xlink" x="0px" y="0px"
	 viewBox="0 0 1000 1000" style="enable-background:new 0 0 1000 1000;" xml:space="preserve">
<g>
	<g>
		<path d="M839,796.6c-10.3-8.8-21.1-12.3-32-15.1c-19.3-5.1-39.1-6-59-5.9c-1.4,0-3,0.6-4.2,1.3c-38.7,23.5-80.4,41-121.5,59.5
			c-26.1,11.8-52,24-77.6,36.9c-7.7,3.9-14,10.6-20.9,15.9c-2,1.5-4,2.9-7,5c-0.2-18-2.9-35,13.7-46.5c10.9-7.5,9.9-13.9-0.7-24.5
			c-3.8,2.4-7.7,4.8-12.4,7.7c-0.6-2.7-1.1-4.4-1.5-6.2c-0.8-3.9-0.7-8.2-2.3-11.7c-2.4-5-0.9-8.8,2.1-12.3c3-3.6,3.4-7.2,2.1-11.5
			c-1.2-4-1.8-8.1-3.1-12.1c-2.4-7.1-0.1-12.8,5.9-16.4c9.1-5.4,18.7-10.1,28.1-15.1c2.6-1.4,5.3-2.7,7.9-4
			c-0.1-0.6-0.3-1.3-0.4-1.9c-2,0.3-4.3,0.2-6.1,1c-17.9,8.4-35.8,17-53.7,25.5c-1.5,0.7-3,1.1-5,1.8c-2.9-10.1-4.7-20.4-15.7-26.7
			c15.6-6.7,29.9-12.8,45.2-19.3c-3.9-2.4-7.1-4.6-10.4-6.4c-7-3.7-10.4-9.2-10.6-17.2c-0.1-6-1.5-11.9-1.9-17.9
			c-0.3-3.4-1.6-5-5.1-5.4c-12.4-1.5-24.8-3.2-37.1-4.9c-9.1-1.2-9.3-1.7-9.9-10.9c-0.6-7.8-1.4-15.6-2.8-23.3
			c-0.8-4.5,0.3-7.5,4.2-9.5c9.3-4.5,18.6-8.8,27.9-13.5c2.3-1.2,4.1-3.3,6.2-4.8c1.2-0.8,2.6-1.3,4-1.7c9.2-3,18.3-6,27.5-9
			c0.7-0.2,1.3-0.9,2.8-1.8c-3.2-2.1-5.8-4.2-8.6-5.6c-14.1-7.1-28.4-14-42.6-20.9c-4.3-2.1-8.7-4.1-13-6.2
			c-0.6-0.3-1.2-0.7-1.5-1.2c-4.3-7.7-8.5-15.4-13.3-24c4.9-0.9,9.1-1.7,13.3-2.4c2.7-0.4,4.9-1.1,5.1-4.3c0.8-9.5,8.2-13.6,15-18
			c3.3-2.1,5.6-0.8,5.3,3.2c-0.4,5.1-1.6,10.1-2.6,16.3c20.3-4.6,39.6-10.1,57.4-23.4c-6.3-5.2-11.6-10-17.3-14.2
			c-9.2-6.6-18.8-12.7-28.1-19.1c-2.6-1.8-5.1-3.8-7.5-5.8c-3.6-3-4.7-6.6-2.8-11.1c5.5-13,8.1-27.1,17-38.7
			c7.1-9.2,13.4-19,20-28.6c0.6-0.9,1.1-2,2.1-3.7c-37.2,8.9-73.2,19.5-111.5,23.5c0.1-2.9,0.1-4.9,0.3-6.7
			c1.1-7.6,2.7-15.1,3.2-22.7c0.4-5.5,3-8.1,7.9-9.4c13.1-3.3,26.1-6.9,39.2-9.9c21.3-4.9,42.6-9.4,63.9-14.1c1.9-0.4,3.8-1,6.9-1.8
			c-6.5-5.4-4.2-11.5-3.2-17.5c1.2-6.9,3.4-13.7,3.8-20.6c0.2-3.7-1.2-8.5-3.6-11.3c-4.7-5.5-10.3-10.4-16-14.8
			c-2.1-1.6-5.7-1.1-8.7-1.4c-17.7-1.7-35.4-3.3-53.1-5.3c-3.9-0.4-7.8-2.1-11.2-4.1c-2.4-1.4-4.5-3.9-5.9-6.4
			c-3.2-6-5.9-12.3-8.9-18.4c-2.7-5.4-2.8-8.1,2.1-11.8c6.8-5,13.9-9.8,21.4-13.6c24.2-12,49.6-15.9,76.2-9c4,1,7.8,3.1,11.8,4.1
			c2.6,0.6,5.9,1.1,8.1,0c7.4-3.7,14.5-8.1,22.5-12.8c-6.5-1.7-12.4-2.9-18.1-4.9c-5.6-2-11.1-4.4-16.4-7.2
			c-5.1-2.7-7.5-7.4-7.3-13.3c0.3-8,0.3-16,1.1-24c0.5-5.2-1.5-8-6-9.4c-10.2-3.1-20.5-5.7-30.6-9.2c-12.5-4.3-25.2-8.6-37.2-14.3
			c-8.8-4.1-14.9-11.4-13.5-22.3c0.4-3.2,1.8-6.4,3-9.5c4.2-11.2,9.1-22.2,12.8-33.6c4.4-13.8,13.9-23.3,25.1-31.4
			c4.4-3.2,8-1.6,9.4,3.7c2.6,9.5,1.9,21.8-9.5,29.1c-5.9,3.8-11.5,8-17.4,11.8c-3.8,2.4-3.8,5.1-0.6,7.4
			c6.4,4.7,12.5,10.2,19.7,13.2c10.5,4.5,21.7,7.3,32.7,10.6c13.7,4.1,15,5.6,14.9,19.9c0,10.8-0.2,21.7-0.7,32.5
			c-0.2,4.8,1.7,7.9,5.7,10.2c13.6,7.6,28.4,11.4,43.5,14c13.1,2.3,26.4,3.6,39.6,5c4,0.4,8.3-0.4,12.3-1.2
			c22.2-4.2,44.3-8.9,66.6-12.8c6.3-1.1,12.9-0.2,19.4,0.2c1.9,0.1,3.8,1.3,6.4,2.3c-1.6,2.2-2.6,3.7-3.7,5.1
			C702.5,185,695,194,687,202.4c-2.3,2.4-6.1,4.2-9.4,4.6c-10.4,1.4-20.9,2.9-31.3,2.6c-15.8-0.4-30.7,3.4-45.6,7.6
			c-19.3,5.4-38.2,11.7-56,21c-4.1,2.1-8,4.7-12,7.2c-10.6-11.6-24.8-13.1-39-13.8c-18.6-0.9-36.5,2.4-52.5,12.9
			c-3.1,2.1-5.8,4.7-10,8.2c6,1.2,10.5,2.5,15,2.9c17.4,1.9,34.8,3.7,52.2,5.1c4.5,0.4,7.6,2.4,11.2,4.7c6.8,4.4,14,8.3,21,12.6
			c2.7,1.6,5.1,3.7,7.7,5.7c-0.6,1.4-0.8,2.6-1.5,3.4c-7.1,8.1-9.8,17.9-12,28.1c-0.7,3.3-0.2,5.6,2.3,7.5c3.7,2.8,7.5,5.6,11.3,8.2
			c3.6,2.4,5.4,5.5,5.5,10c0.1,7.7,1,15.3,0.6,23c-0.2,2.9-2.7,6.2-4.9,8.5c-2.1,2.2-5.3,3.2-8.4,5c0.4,1.3,0.6,2.6,1.2,3.7
			c3.9,7.6,2.2,14.2-3.5,20c-11.7,12-23.5,24.1-35.3,36.1c-2.5,2.6-4.9,5.3-8,8.7c6.5,4.7,12.7,8.9,18.6,13.4
			c7.8,5.9,15.7,11.8,23.2,18.2c7.3,6.3,10.8,14.3,10,24.4c-0.7,8.3-0.1,16.6-0.1,25.8c2.4,0,5.4-0.2,8.3,0
			c11.1,0.9,22.2,1.7,33.3,3c6.8,0.8,10.4,4.9,11.4,11.9c1.2,8.2,2.7,16.4,4.7,24.5c2.4,9.5-0.4,17.4-6.2,24.6
			c-7.6,9.4-17.7,15.5-28,21.4c-1.6,0.9-3.1,1.8-5.8,3.4c3.4,0.9,5.8,1.3,8,2.2c10.3,4.1,20.8,7.9,30.9,12.6
			c6.6,3.1,9.8,8.9,8.8,16.4c-2.1,15-3.3,30.2-6.8,44.9c-2,8.6-7.5,16.4-11.5,24.9c0.5,0,2,0.2,3.6,0.2c13.2,0,26.5-1.4,39.4,0.3
			c14.8,1.9,27.7-4.2,41.4-6.7c19-3.5,37.8-5.4,57.1-2.9c11.4,1.4,23,0.9,34.3,2.6c6.7,1,13.5,3.7,19.5,7.1
			c8.6,4.9,10.2,13.2,5.5,22c-1.2,2.3-2.6,4.6-3.5,6.3c12,3.3,23.9,6.1,35.5,10c8.7,2.9,17.8,7.1,21.6,15.9
			c6.3,14.5,10.7,29.9,10.4,45.8c-0.2,8.6-6.2,15.6-12.1,21.9c-10.8,11.6-23.7,20.4-37.3,28.3c-39.6,22.9-82,39.3-125.4,52.9
			c-39.2,12.4-78.8,23.4-118.3,35.1c-4.3,1.3-8.6,2.7-12.8,4.2c-6.4,2.3-12,5.6-15.8,11.6c-1,1.6-3.3,2.4-5,3.5
			c-1.1-1.9-3-3.7-3.2-5.8c-1.1-9.4-2.9-19.4,5-26.9c3.7-3.6,8.5-6.6,13.3-8.3c24.9-8.9,50-17.5,75.1-25.7
			c48.1-15.8,96.1-32,142-53.5c22.7-10.6,44.9-22.1,64.2-38.2C825.9,811.2,831.9,803.8,839,796.6z M547.2,829
			c13.7-14.9,30.2-28,48.3-39.1C628.3,769.7,664,757,702,750.6c4.4-0.7,9.7-0.6,12.9-3c7-5.4,13.9-11.5,19.2-18.6
			c6.4-8.5,1.2-17.7-9.6-18.8c-1.8-0.2-3.7,0-5.5,0.1c-22.1,2-43.7,6.7-64.8,13.6c-6.5,2.1-12.9,4.2-17.1,10.2
			c-1.3,1.8-3.4,3.3-5.4,4.4c-18,9.7-36,19.4-54.1,28.8c-3.7,1.9-6.5,4-8,8.1c-4.4,11.7-10,22.9-19.4,31.6c-0.8,0.7-1.4,1.9-1.5,3
			C548,816.5,547.6,823,547.2,829z M525.9,693.3c5.2,2.5,12.2,5,18.2,9.1c7.1,4.7,12.7,3.6,19.3-0.8c12-7.9,23.9-15.7,31.7-28.4
			c2-3.3,1.8-6.1-0.9-8.4c-3.6-2.9-7.3-5.8-11.4-8c-18.1-9.7-38-13.8-57.9-17.9c-11.9-2.5-22.5-1.2-33.1,5.6
			c2.7,0.8,5.1,1.4,7.4,2.1c5.8,2,11.7,3.9,17.4,6c4.3,1.6,6.3,4.9,6.8,9.5c0.8,6.6,2.5,13.1,3.3,19.7
			C527.1,685.1,526.3,688.5,525.9,693.3z M528.5,590.9c18.5-8.5,35.4-16,50.4-29.6c-23.8-4.9-46.5-4.6-70.3-3.9
			C519.6,566.2,533.7,572.1,528.5,590.9z M546.8,788.4c0.4,0.4,0.7,0.9,1.1,1.3c5.9-5,11.9-10,17.8-15c-0.5-0.6-1.1-1.2-1.6-1.8
			C558.4,778,552.6,783.2,546.8,788.4z"/>
	</g>
</g>
</svg>
