<?xml version="1.0" encoding="utf-8"?>
<!-- Generator: Adobe Illustrator 22.1.0, SVG Export Plug-In . SVG Version: 6.00 Build 0)  -->
<svg version="1.1" id="Layer_1" xmlns="http://www.w3.org/2000/svg" xmlns:xlink="http://www.w3.org/1999/xlink" x="0px" y="0px"
	 viewBox="0 0 1000 1000" style="enable-background:new 0 0 1000 1000;" xml:space="preserve">
<g>
	<g>
		<path d="M723.9,814.6c-7.6-1.4-15.2-2.9-22.8-4.2c-3.4-0.6-7-0.6-10.4-1c-10.6-1.3-19.8,1.6-29.5,6.4
			c-29.8,14.9-60.2,28.4-90.2,42.8c-14.3,6.8-28.2,14.4-42.3,21.4c-4.7,2.4-9.6,4.3-15.3,6.8c0-8.4-0.4-15.8,0.2-23.2
			c0.3-3.9-0.3-5.6-4.3-6.6c-9.8-2.6-19.6-5.5-29.2-8.8c-7.5-2.6-7.9-4.2-4.7-11.3c7-15.3,14.1-30.5,21.2-45.8
			c0.4-0.9,0.7-2,1.3-2.7c6.5-6.8,5.7-14.6,3.8-22.8c-1.5-6.3-2.6-12.7-4.2-19c-1.9-7.4,0.3-12.5,7.4-15.9c2-1,4.1-1.9,6.9-3.1
			c-4.6-3.7-8.5-7-12.5-10.2c-4.9-3.8-6.5-8.8-6.4-14.9c0.1-6.6,0.1-13.4-0.7-19.9c-0.6-5.2,1.1-8.4,5.5-10.5
			c4.6-2.2,9.3-4.2,14.6-6.6c-2.4-0.9-4.2-1.3-5.8-2.2c-4-2.1-7.1-4.9-6.2-10.2c0.2-1.1,0.2-2.3,0.2-3.5c0.3-8.2,0.2-8-7-11.7
			c-2.1-1.1-4-3.5-4.8-5.7c-4-10.8-7.3-21.8-11.3-32.5c-2-5.2-5.1-10-8.3-16.1c12-3.3,23.9-6.5,36-9.8c-0.2-3-0.4-5.6-0.6-8.9
			c-6.4-0.8-12.8-1.8-19.2-2.4c-7.5-0.8-14.9-1.3-22.4-1.9c-3.1-0.2-4.5-1.4-5.4-4.6c-1.5-5.6-3.8-11-5.8-16.4
			c-0.7-1.8-1.4-3.7-2.5-6.4c6.1-1.4,11.7-2.7,17.3-4.1c13.7-3.6,27.3-7.4,41-11c3.8-1,5.7-2.8,5.2-7c-0.3-3,0-6-0.1-9
			c-0.1-6.7-1.3-8.2-8.1-8.5c-6.1-0.2-12.3-0.1-18.5,0.3c-15.3,0.8-30.6,1.8-45.9,2.8c-3.7,0.3-5.6-0.7-6.7-4.7
			c-3.7-13.8-7.7-27.6-11.8-41.3c-1.2-3.9-2.9-7.7-4.6-12.3c23.3-7.9,47.4-11.5,70.9-18c-3.7-5.1-7.1-10.1-11-14.8
			c-0.8-0.9-3-1-4.6-0.9c-11.4,1.2-22.8,2.7-34.2,3.9c-5.6,0.6-11.3,0.9-16.9,1.1c-5.8,0.1-6.8-1.8-6.1-7.5
			c0.9-7.1,1.4-14.3,1.3-21.4c0-4.6,1.6-7.4,5.8-8.7c12.4-3.8,24.8-7.4,37.3-11.1c2.2-0.6,4.4-1.1,6.7-1.7
			c-6.6-9.3-13.8-16.3-26-16.2c-5.3,0-10.8-1.9-16-3.5c-4.8-1.4-6.7-4.9-6.3-10c0.5-6.1,0.8-12.3,0.5-18.5
			c-0.3-5.8,1.8-10.2,6.4-13.2c5-3.3,10.3-6,15.6-8.9c1.4-0.8,2.9-1.3,5.8-2.6c-5.6-1.6-9.9-2.7-14.1-4.1c-6.3-2.1-12.7-4-18.6-7.1
			c-2.8-1.5-5.1-5.1-6.3-8.3c-2.4-6.2-3.7-12.8-5.8-19.1c-1.7-4.9-0.7-9,3-12.2c4.1-3.6,8.4-6.9,13.1-10.7c-3-2.3-6-4.5-8.9-6.8
			c-5.8-4.7-9.1-10.3-7.9-18.2c1.2-8.1,1.5-16.2,2.3-24.4c0.5-5.8,3.4-10.8,8-13.9c9.9-6.9,20.3-13.2,30.6-19.7
			c1.5-1,3.2-1.6,5.8-2.9c-2.2-1.4-3.9-2.3-5.4-3.4c-5.8-4.4-11.9-8.5-17.2-13.5c-4.8-4.6-5.5-11-3.2-17.2
			c5-13.8,10.2-27.4,15.7-41.1c1.3-3.2,3.4-6.2,5.6-8.8c9.1-10.9,20.7-18.7,33.1-25.4c6-3.2,8.8-1.7,10.5,4.9
			c3.1,11.7-1.3,21.5-12.2,27.7c-9.5,5.4-19,11-28.4,16.6c-2.5,1.5-4.8,3.5-8.3,6.2c4.1,3.8,7.4,7.9,11.5,10.5
			c8,5,13.3,10.9,14.2,20.8c0.4,4.7,3.2,9.3,5,14.1c5.7-1.8,10.6-3.5,15.5-4.7c7.1-1.7,10.7,0.6,12.7,7.6c2.1,7.1,1.7,12.6-1.9,20.7
			c7.1,3.4,14.1,7.1,21.4,10.1c27.4,11.2,56,17.3,85.5,18.4c8.4,0.3,16.9-3,25.4-4.2c16-2.3,31.9-4.5,47.9-6.4
			c2.9-0.3,6,0.8,9.8,1.5c-1.1,2.8-1.7,4.6-2.5,6.3c-3.6,7.3-7.4,14.5-10.8,21.9c-1.6,3.4-3.8,5.3-7.5,5.6
			c-8.9,0.8-17.9,2.4-26.8,2.3c-16-0.1-30.9,4.3-46,8.4c-6.4,1.8-12.9,3.4-19.1,5.7c-13.7,5.1-27.7,4.6-41.9,3.2
			c-19.3-1.9-38.6-1.4-58.6,2.5c7.5,6,14.6,11.4,23.2,13.3c19.1,4.3,38.3,8.7,57.7,11.7c18.4,2.9,37,4.3,55.6,6
			c5.9,0.5,12-0.2,17.9-0.3c3.4-0.1,6.8,0,10.2,0c0.2,0.5,0.3,0.9,0.5,1.4c-1.1,1.1-2.1,2.3-3.2,3.4c-3.2,3.1-6.8,6-9.6,9.4
			c-5.9,7.1-12,11.9-22.4,10.3c-4.3-0.7-9.3,2.5-13.8,4.5c-7.4,3.3-14.6,7.1-22.7,11c4.2,1,7.9,1.9,11.7,2.8c7,1.6,11.3,4,8.5,12.8
			c-1.5,4.7-2.8,9.6-3.4,14.6c-1.1,8.9-6.4,14.4-13.9,18.2c-4,2-6,4.7-7.1,9.3c-1.1,4.4-4.4,8.3-6.9,12.8c6.7,7.6,10.5-2.4,16.7-4.5
			c-2.5,8.3-4.8,15.8-7.2,23.4c-0.5,1.7-1.2,3.5-1.9,5.1c-6.5,14.5-9.4,29.8-10.1,45.5c-0.4,9.5-3.4,17.3-12,22.1
			c-2.7,1.5-2.9,3.7-1.3,5.9c8.8,11.6,7.9,25.1,8.3,38.6c0.3,9.9-1.1,18.3-8,25.6c5,8.1,5.7,16.1,3.2,25c-2.4,8.4-3.7,17.1-2.5,26.1
			c0.6,4.5-1.4,9.4-2,14.1c-0.2,1.6-0.1,4.3,0.7,4.7c5.1,2.4,5.5,7,5.3,11.4c-0.6,15.8-1.2,31.6-2.6,47.4c-1,10.5-3.3,20.9-5,31.2
			c22.7,12.3,45.8,25.4,72.3,30.7c6.3,1.3,13.2,2.3,14.9,10.4c6.9-0.5,13.5-1.3,20.1-1.5c12.3-0.4,24.1,1.4,35.4,6.8
			c5.3,2.6,11.2,4.3,17,5.6c9.2,2.1,14.5,9.6,21.6,14.8c0.9,0.7,0.6,3.1,0.9,5.3c11.2,0.9,15.8,11,23.1,17.7c0.9,0.9,1.9,2,2.3,3.2
			c4.7,12.4,9.3,24.8,13.9,37.3c1.4,3.9,2.3,8,3.8,11.9c5.8,14.7,1.1,26.7-9.1,37.3c-15.4,16.1-34.4,26.7-54,36.4
			c-32.3,16-66.5,27.1-100.5,38.9c-20.1,7-39.7,15.3-59.6,23.1c-3.7,1.4-7.4,3-11.3,4.1c-4.9,1.3-7.9-0.2-9.1-5.1
			c-1.2-4.8-1.9-9.8-2.2-14.8c-0.6-11.1-0.7-22.3-1.3-33.5c-0.2-3.5,1-5.2,4.4-6.6c42.2-17.3,84.5-34.3,126.5-52.3
			c18.3-7.8,36.2-17,53.7-26.7c9.3-5.2,17.3-12.8,25.8-19.4C724,815.5,723.9,815,723.9,814.6z M565.5,325.3c-2.3-0.7-4.3-1.5-6.4-2
			c-21.9-5.1-43.8-10.1-65.7-15c-3.2-0.7-6.7-1.6-9.8-0.9c-14,3-27.8,6.5-41.7,9.8c-1.1,0.3-2,1.1-2.3,1.3c4.4,2.3,9.1,4,12.9,6.8
			c4.8,3.4,8.3,8.9,13.4,11.4c10.8,5.4,22.3,9.5,33.6,14c1.3,0.5,3,0.7,4.4,0.3c14.7-3.6,29.4-7.3,44-11.1
			C555.8,337.9,560.7,332.1,565.5,325.3z M413,188.7c-0.1,0.7-0.3,1.3-0.4,2c0.9,0.4,1.8,0.8,2.7,1.3c10.5,6.1,21,12.2,31.5,18.2
			c1.1,0.6,2.9,0.4,4.2-0.1c20.7-6.9,42.1-9.8,63.9-9.4c7,0.1,13.9,0,20.9,0c-4.9-2.3-9.8-3.8-14.6-5.5
			c-18.4-6.7-36.2-14.6-49.5-29.8c-0.8-0.9-3.4-1.1-4.8-0.6c-9.4,3.3-18.9,6.5-28,10.6C430,179.2,421.6,184.2,413,188.7z
			 M510.3,812.5c4.2,0.3,7.1,6.7,12,2.1c15.7-15.1,34.8-25,53.3-35.8c4.3-2.5,8.7-5.1,13.4-6.5c12.4-3.8,25-7,37.6-10.3
			c4.8-1.3,9.7-2.8,14.6-3.2c10.3-0.7,20.6-0.8,31-1.1c6.4-0.2,10.1-4.8,8.6-11.2c-0.3-1.3-1.8-3-3-3.2c-5.4-0.9-11-2.2-16.3-1.8
			c-14.6,1.3-29.1,3.1-43.6,5.2c-4.1,0.6-8.1,2.9-11.9,4.8c-3.3,1.6-6.1,4.1-9.4,5.7c-16.7,8.2-33.6,16.1-50.3,24.4
			c-7.9,3.9-15.6,8-23.1,12.5C516.4,798.2,511.5,803.8,510.3,812.5z M525.2,273.2c-5.6-0.9-11.8-1.8-18-2.9
			c-20.1-3.5-39.4-8.6-53.5-25c-1.1-1.2-2.7-1.9-4-3c-4.3-3.8-8.5-4.3-13.4-0.9c-4.6,3.2-9.7,5.9-14.4,9c-1.9,1.3-3.5,3.1-5.5,4.9
			c1.4,0.6,1.9,1,2.6,1.2c15.4,4.3,30.3,9.6,44,18.4c3.9,2.5,9.4,4.2,14,3.8C493.2,277.4,509.3,275,525.2,273.2z M549.2,398.7
			c-6.4-3.6-12-6.6-17.4-10c-10.7-6.7-21.6-8.1-33.5-3.5c-6.2,2.4-13,3.3-20.1,5c0.8,1.1,1.1,1.7,1.6,2.1
			c9.8,6.9,19.6,13.7,29.5,20.5c0.9,0.6,2.3,1,3.3,0.7C525.1,410.5,537,406.1,549.2,398.7z M514.7,474.2c2.2,6.5,5,12.3,6,18.4
			c1,6.1,0.2,12.6,0.2,20.5c6.9-4.2,12.3-7.5,18.2-11.1c-3.3-4.4-5.9-8.1-8.6-11.6c-2.1-2.6-2.8-5.1-1.8-8.7c1.1-4.1,1-8.6,1.5-14
			C524.2,470.4,519.7,472.2,514.7,474.2z"/>
	</g>
</g>
</svg>
