<?xml version="1.0" encoding="utf-8"?>
<!-- Generator: Adobe Illustrator 22.1.0, SVG Export Plug-In . SVG Version: 6.00 Build 0)  -->
<svg version="1.1" id="Layer_1" xmlns="http://www.w3.org/2000/svg" xmlns:xlink="http://www.w3.org/1999/xlink" x="0px" y="0px"
	 viewBox="0 0 1000 1000" style="enable-background:new 0 0 1000 1000;" xml:space="preserve">
<g>
	<g>
		<path d="M538.7,833.7c-36.7-4.4-72.8-8.8-109.7-13.3c1.3-3.1,2.3-5.6,3.4-8.1c14-31.5,27.8-63.1,42-94.5c3.9-8.8,5-17.9,5.3-27.2
			c0.2-5.6,2.2-9.7,6.2-14c5-5.4,5.8-13.8,2.6-19.6c-7.9-14.1-7.6-29.8-11.3-44.7c-6.2-24.5-13-48.9-19.6-73.3
			c-1.7-6.4-1.2-8.3,4.8-11c4.8-2.2,9.9-3.8,16.5-6.3c-6.2-4.9-11.1-10.1-17-13.3c-21.2-11.2-16.8-6.9-22.8-27.8
			c-8.2-28.8-15.1-58-23-86.8c-2.4-8.7-2.4-15.8,7.2-19.4c-0.2-0.8-0.1-1.3-0.3-1.4c-10.9-6.2-15.4-16.3-18.2-27.9
			c-3.6-14.9-8.4-29.5-11.8-44.4c-0.9-4,1.4-8.7,3.3-12.9c-0.1-0.3-0.1-0.8-0.3-0.9c-7.5-5.3-9.2-12.9-8.7-21.5
			c0.2-3.6,0.1-7.4-0.7-10.9c-2.1-9.1,1.9-15.5,8.3-21.1c1.6-1.4,3.2-2.8,4.7-4.2c-0.1-0.6-0.1-1.1-0.3-1.3
			c-7.9-8.1-9.3-17.6-7.3-28.6c3-16.2,4.5-32.6,7.3-48.9c0.8-4.4,3.9-8.3,5.7-12.5c0.7-1.5,1.5-3.5,1.1-4.9c-2-6.9-1.9-13.6,0-20.6
			c1.9-6.7,3.4-13.6,4.4-20.5c1.5-10.9,7.2-19.2,14.8-26.5c15.9-15.1,35.3-24.2,55.1-32.7c6.1-2.6,9.6-0.5,10.6,6.2
			c0.9,5.4,1.2,10.9,1.2,16.4c0,1.5-1.9,3.7-3.5,4.5c-7.6,3.7-15.5,7-23.3,10.4c-14.9,6.4-29.1,14.1-41.8,24.3
			c-1.6,1.2-3.1,2.5-4.5,3.9c-7.5,7.7-7.9,16.3-0.6,26.1c22.2-16.8,48.4-25.6,74.2-36.3c0.4,2,0.9,3.5,0.9,4.9
			c0.3,13.6,0.5,27.3,0.6,40.9c0.1,10.6-5.3,17.5-15.3,20.9c-3.4,1.2-6.8,2.4-10.5,4.8c3.4,1.3,6.8,2.8,10.3,3.9
			c28.1,8.9,56.9,13.5,86,17.3c15.7,2.1,30.8-2.3,46.1-3.4c14.1-1,28.2-2.1,42.3-2.7c7.5-0.3,8.1,0.9,7.5,8.6
			c-0.4,5.6-0.9,11.4-0.3,16.9c0.5,4.7-1.3,6.7-5.4,7c-13.3,1.1-26.6,3.1-39.8,2.7c-24.8-0.7-49.2,2.6-73.7,4.9
			c-14.1,1.3-28.1,3.4-42.1,5.1c-0.8,0.1-1.6,0.4-2.6,0.6c6.2,4,41.1,9,79.8,13.1c27,2.9,53.7-2.1,81.4-1.7
			c-4.1,13.7-7.9,26.2-11.6,38.7c-0.6,1.9-1.7,3.7-2,5.6c-1.4,9.3-7.4,11.8-15.9,12.8c-32.1,3.7-64.1,7.9-96.2,12
			c-7.2,0.9-14.5,2.1-21.8,4.2c7.6,1.1,15.2,2.4,22.9,3.4c30.7,3.7,61.5,7.3,92.2,11c1.5,0.2,2.9,0.5,4.4,0.8c2.7,0.6,3.8,2,3.1,5
			c-1.6,7.3-2.8,14.7-4.5,22c-0.4,1.7-1.9,3.9-3.5,4.5c-8.5,3.2-10.2,10.7-12.3,18.2c1,0.6,1.7,1.1,2.4,1.4c4.7,1.8,5.3,4.5,3.5,9.3
			c-5.8,15.1-11.3,30.2-16.3,45.6c-2.2,6.7-6.5,10.5-12.4,13.4c-8.5,4.2-16.8,8.7-26.3,13.6c2.6,1.2,4.2,1.8,5.7,2.7
			c4.6,2.7,9.2,5.3,13.5,8.4c2.9,2.1,3.8,5.4,2.5,9c-14.3,38.6-21.4,79-29.7,119.1c-1.3,6-4.2,10.8-8.8,14.7
			c-2.2,1.8-4.4,3.5-6.6,5.1c0,0.5-0.1,0.9,0,1.1c7.1,8.6,11.2,18.4,12.3,29.5c3.2,30.8,17.7,56.2,38.5,78.3
			c1.9,2.1,3.7,4.3,5.8,6.2c6.4,5.8,9.9,12.2,4.4,20.6c6.2,2,12.2,3.2,17.4,5.9c5.3,2.8,10.6,6.4,14.5,10.9
			c25.9,29.6,43.8,63.8,56,101.1c4.5,13.7,1.8,24.8-7,35.2c-10.3,12.2-23.4,20.7-37.3,28.1c-35.8,18.9-73.4,33.1-112.6,43.2
			c-1.8,0.5-3.6,0.7-5.4,1c-7.4,1.1-11.2-1-12.7-8.5c-1.5-7.8-2.2-15.8-2.5-23.8c-1.1-24.1-2-48.3-2.8-72.4c-0.1-4.3,0.1-8.7,0.6-13
			c0.8-7.4,4.6-12.7,11.6-15.5C527.1,838.1,532.6,836,538.7,833.7z M562.6,338.8c-0.1-0.4-0.2-0.8-0.2-1.2c-0.8-0.1-1.6-0.2-2.4-0.4
			c-32.4-5.7-64.9-11.5-97.3-17.1c-4.4-0.8-9.1-2.3-13.1-1.3c-7.5,1.9-14.7,5.4-21.9,8.3c-1,0.4-1.8,1.2-3.3,2.2
			c19.6,8.6,39.4,13,59.2,17.6c11.6,2.7,23,4.7,34.8,0.8c4.7-1.5,9.8-2.1,14.7-3.1C542.8,342.7,552.7,340.7,562.6,338.8z
			 M416.6,181.2c6,8.6,20.9,20.1,29.9,23c1.7,0.5,3.9,0.2,5.7-0.3c11.6-3,23.2-6.1,34.7-9.2c0.6-0.2,1.1-0.6,2.2-1.2
			c-18.5-5.2-35.8-11.6-51.7-21.2c-0.7-0.4-2-0.7-2.7-0.4C428.6,174.9,422.7,178.1,416.6,181.2z M444.5,259.7
			c-8-4.2-16.2-8.6-24.4-12.8c-1.1-0.6-3.1-0.7-4.1-0.1c-7.2,4.3-14.2,8.9-22.4,14.2c6.3,5.2,11.4,9.6,16.7,13.7
			c0.7,0.5,2.3,0.5,3.1,0C423.9,269.9,434.3,264.7,444.5,259.7z"/>
	</g>
</g>
</svg>
