<?xml version="1.0" encoding="utf-8"?>
<!-- Generator: Adobe Illustrator 22.1.0, SVG Export Plug-In . SVG Version: 6.00 Build 0)  -->
<svg version="1.1" id="Layer_1" xmlns="http://www.w3.org/2000/svg" xmlns:xlink="http://www.w3.org/1999/xlink" x="0px" y="0px"
	 viewBox="0 0 1000 1000" style="enable-background:new 0 0 1000 1000;" xml:space="preserve">
<g>
	<g>
		<path d="M550.7,827.2c-46.1-10.6-92.6-14.2-140.4-15.7c1.2-2.9,1.9-4.7,2.6-6.5c14.2-32.1,28.4-64.3,42.6-96.4
			c0.3-0.6,0.5-1.2,0.8-1.8c6.3-16,6.3-16,18.3-27.1c-5.7-3.8-6.6-9.4-6-15.7c3.6-38.8-1.8-76.7-12.3-114.1c-3.4-12-3.3-12,4.8-20.9
			c-0.2-0.4-0.3-0.9-0.7-1.2c-12.1-7.8-18.4-19.4-23.3-32.6c-10.9-29.5-22.7-58.7-34-88.1c-4.2-10.8-3.2-14.9,5.5-22.9
			c0.5-0.4,0.9-0.9,1.8-1.8c-3.5-2.2-6.8-4.2-10.1-6.3c-6.6-4.2-10.6-10.1-12.5-17.9c-7.9-32.2-12.1-64.7-11.3-98
			c0.3-9.9,3.5-17.8,10.4-24.5c0.8-0.8,1.5-1.7,2.6-3c-8.7-9.4-5.5-20.2-3.7-30.8c4.9-28.8,7.6-57.8,5.8-87.1
			c-1.1-16.8,5.8-29.7,17.5-40.7c15.6-14.6,34.1-24.2,53.6-32.4c6-2.5,11.9-5.1,18.1-7.3c8-2.8,11.5-0.8,12.3,7.5
			c0.8,9.3,1,18.6,1,27.9c-0.1,19.7-0.5,39.3-0.8,59c-0.2,12.5-6,20.6-18.1,24.5c-6.7,2.2-13.3,4.9-20,7.3c0,0.5,0,1-0.1,1.6
			c13.3,3.4,26.6,7.3,40,10.1c13.3,2.8,26.8,5.4,40.4,6.7c8.3,0.8,16.9-0.8,25.3-1.8c25-2.9,50-5.2,75.2-3.8
			c15.6,0.9,15.6,0.9,18,16c4.8,29.8,8.5,59.7,6.8,90c-0.1,2.3-0.4,4.6-0.6,7.5c-56,2.5-111.2,9.5-165.8,21.5
			c52.6,10.1,106,13.4,160,17.8c-1.6,7.1-2.6,13.2-4.4,19c-9.5,30.5-19.1,61-29.1,91.3c-1,3.1-4.8,6.3-8,7.3
			c-13.8,4.4-27.8,8.1-41.7,12c-2,0.6-4.1,1-6.2,2.5c3.4,1,6.9,1.9,10.2,3.1c8,2.9,16.1,5.6,23.7,9.2c7.1,3.3,7.7,6.1,5.1,13.3
			c-12.3,34-23.5,68.3-30.2,104c-1.5,7.9-6.2,12.6-12.5,16.5c-2.8,1.7-5.7,3.3-9.1,5.3c2,1.4,3.5,2.6,5.1,3.7
			c8.7,5.5,12.2,13.3,13,23.7c1.2,15.5,3.1,31.2,6.9,46.3c3.9,15.4,10,30.3,15.8,45.2c3.4,8.9,6.8,17.2-0.4,25.4
			c0.5,0.7,0.6,1.1,0.8,1.3c14.7,7.6,22.4,20.7,28.5,35.3c12.2,28.8,24.6,57.5,36.9,86.3c9.2,21.5,5.2,34.4-14.1,50.8
			c-16.1,13.7-35.2,22.2-55.1,28.5c-19.2,6.1-38.8,10.8-58.2,16.1c-1,0.3-2,0.4-2.9,0.5c-9.7,1.1-13.7-1.6-15.5-11.1
			c-1-5.5-1.5-11.2-1.8-16.9c-1.3-27.1-2.4-54.3-3.5-81.4c-0.1-1.7,0-3.3,0-5c0.4-14.4,4.7-19.9,18.6-23.9c7.7-2.2,15.3-4.5,23-6.7
			C549.7,828,550,827.7,550.7,827.2z"/>
	</g>
</g>
</svg>
